<?xml version="1.0" encoding="UTF-8" standalone="no"?>
<svg width="1200" height="650" viewBox="0 0 1295 759" version="1.1" xmlns="http://www.w3.org/2000/svg" xmlns:xlink="http://www.w3.org/1999/xlink">
    <title>Cameroon First Booking Site</title>
    <svg x="10" y = "70">
        <svg >
          <text x="100" y="370" fill="#606060" text-decoration="bold" font-size="250">tr</text>
        </svg>
        <path
         d="m 330,250 0.4,-9.2 -1,-9.1 -4.9,-8.9 -3.4,0.8 -0.4,4.4 4.9,5.5 -1.3,2.5 -0.5,4.6 -10.2,10.7 -3.1,8.8 -1.6,7.2 -2.6,3.1 -2.4,9.7 -6.4,5.7 -1.9,7 -2.7,5.6 -1.1,5.7 -8.3,4.7 -6.9,-5.7 -4.6,0.2 -7.2,8.1 -3.6,0.1 -5.7,13.4 -3.1,9.8 -0.1,3.8 3.1,2 2.5,6.2 5.6,2.3 4.8,9.2 -1.8,10.9 19.9,0.3 5.8,-0.9 7.4,1.9 7.3,-1.8 1.5,0.7 15.4,0.6 9.9,3.6 9.7,3.3 0.9,-7.5 -1.3,-4 -0.6,-6.3 -5.6,-4.4 -4.6,-7.2 -1,-4.9 -5.8,-7.3 0.9,-4.1 -1.2,-5.8 0.8,-10.7 2.9,-2.6 6.1,-14 1.8,-3.7 -3.9,-9.6 -1.8,-5.7 -5.3,-2.3 -7.2,-8.1 2.5,-6.5 5.6,1.3 3.4,-0.9 6.8,0.1 -6.8,-12.6 z"
         style="fill:#ff2052" />
        <svg >
          <text x="350" y="370" fill="#606060" text-decoration="bold" font-size="250">vel</text>
        </svg>
        <svg >
          <circle cx="962" cy="300" r="260" style="stroke: #606060; stroke-width: 0.3px; fill: #00ccff;"></circle>
          <text x="730" y="370" fill="#ffffff" height="110" text-decoration="bold" font-size="250">Here</text>
        </svg >
    </svg>
</svg>
